<?xml version="1.0" encoding="UTF-8"?>
<svg id="Capa_1" data-name="Capa 1" xmlns="http://www.w3.org/2000/svg" viewBox="0 0 500 500">
  <defs>
    <style>
      .cls-1 {
        fill: #000200;
      }

      .cls-1, .cls-2 {
        stroke-width: 0px;
      }

      .cls-2 {
        fill: #0eff03;
      }
    </style>
  </defs>
  <circle class="cls-1" cx="250" cy="250" r="250"/>
  <g>
    <path class="cls-2" d="M379.69,243.12l-183.33-125c-2.56-1.73-5.86-1.92-8.59-.48-2.72,1.44-4.43,4.27-4.43,7.37v250c0,3.09,1.71,5.92,4.44,7.37,1.22.65,2.56.97,3.89.97,1.64,0,3.28-.49,4.69-1.45l183.33-125c2.27-1.55,3.64-4.13,3.64-6.88s-1.37-5.33-3.64-6.88ZM200,359.22v-218.45l160.21,109.23-160.21,109.22Z"/>
    <path class="cls-2" d="M250,0C112.15,0,0,112.15,0,250s112.15,250,250,250,250-112.15,250-250S387.85,0,250,0ZM250,483.33c-128.66,0-233.33-104.68-233.33-233.33S121.34,16.67,250,16.67s233.33,104.67,233.33,233.33-104.68,233.33-233.33,233.33Z"/>
  </g>
</svg>